<?xml version="1.0" standalone="no"?>
<!DOCTYPE svg PUBLIC "-//W3C//DTD SVG 20010904//EN"
 "http://www.w3.org/TR/2001/REC-SVG-20010904/DTD/svg10.dtd">
<svg version="1.0" xmlns="http://www.w3.org/2000/svg"
 width="2061.000000pt" height="2061.000000pt" viewBox="0 0 2061.000000 2061.000000"
 preserveAspectRatio="xMidYMid meet">
<metadata>
Created by potrace 1.14, written by Peter Selinger 2001-2017
</metadata>
<g transform="translate(0.000000,2061.000000) scale(0.100000,-0.100000)"
fill="#000000" stroke="none">
<path d="M17482 18805 c-300 -102 -805 -451 -1152 -795 -203 -201 -340 -381
-421 -555 -73 -155 -69 -49 -69 -1765 l0 -1545 148 0 c114 -1 170 -6 252 -24
442 -96 802 -417 944 -843 47 -139 61 -232 60 -403 0 -228 -38 -389 -140 -586
-218 -421 -642 -680 -1121 -683 l-143 -1 0 -4832 0 -4833 1150 0 1150 0 0
4880 0 4880 640 0 640 0 0 250 0 250 -640 0 -640 0 0 3315 0 3315 -292 0
c-285 -1 -295 -1 -366 -25z"/>
<path d="M19455 18816 c-316 -74 -555 -316 -619 -629 -78 -374 120 -751 474
-904 116 -50 213 -66 355 -60 269 11 494 140 638 364 91 140 127 265 127 438
0 365 -220 662 -575 775 -90 29 -308 37 -400 16z"/>
<path d="M1341 13965 c-96 -21 -158 -43 -241 -87 -96 -49 -856 -571 -853 -585
2 -8 7707 -11264 7730 -11292 1 -2 5 -2 8 0 2 3 164 502 360 1110 l356 1106
-3215 4694 c-2352 3435 -3234 4715 -3287 4773 -41 43 -98 97 -127 118 -108 80
-257 143 -396 167 -82 15 -258 12 -335 -4z"/>
<path d="M6685 13967 c-93 -20 -169 -47 -245 -86 -73 -38 -859 -571 -860 -583
0 -10 7729 -11292 7738 -11295 7 -3 716 2190 715 2211 0 17 -6419 9383 -6473
9446 -113 132 -271 234 -446 286 -74 22 -113 27 -229 30 -88 2 -162 -1 -200
-9z"/>
<path d="M15777 13965 c-297 -56 -559 -230 -722 -480 -66 -101 -86 -140 -123
-246 -166 -470 14 -1005 430 -1282 329 -219 763 -246 1113 -69 275 138 490
405 572 707 25 91 27 116 27 280 0 164 -2 189 -27 280 -32 119 -117 295 -186
386 -63 82 -179 193 -261 249 -92 63 -236 128 -347 157 -125 32 -354 41 -476
18z"/>
</g>
</svg>
